 http://www.imdb.com/title/tt1606389/
[img]http://moviecax.com/BigStoreOfMovieCax/HollyWood%202012/March2012/The%20Vow/Wallpaper/Main.jpg[/img]

[i][b]General [/b][/i]
[i]Complete name :The Vow DvdRip { BLOVES } 
Format : MPEG-4 
Format profile : Base Media 
Codec ID : isom 
File size : 427 MiB 
Duration : 1h 39mn 
Overall bit rate mode : Variable 
Overall bit rate : 597 Kbps 

Video 
ID : 1 
Format : AVC 
Format/Info : Advanced Video Codec 
Format profile : Baseline@L3.0 
Format settings, CABAC : No 
Format settings, ReFrames : 3 frames 
Codec ID : avc1 
Codec ID/Info : Advanced Video Coding 
Duration : 1h 39mn 
Bit rate : 467 Kbps 
Maximum bit rate : 2 674 Kbps 
Width : 640 pixels 
Height : 266 pixels 
Display aspect ratio : 2.40:1 
Frame rate mode : Constant 
Frame rate : 25.000 fps 
Color space : YUV 
Chroma subsampling : 4:2:0 
Bit depth : 8 bits 
Scan type : Progressive 
Bits/(Pixel*Frame) : 0.110 
Stream size : 334 MiB (78%) 

Audio 
ID : 2 
Format : AAC 
Format/Info : Advanced Audio Codec 
Format profile : LC 
Codec ID : 40 
Duration : 1h 39mn 
Bit rate mode : Variable 
Bit rate : 128 Kbps 
Maximum bit rate : 152 Kbps 
Channel(s) : 2 channels 
Channel positions : Front: L R 
Sampling rate : 44.1 KHz 
Compression mode : Lossy 
Stream size : 91.1 MiB (21%) [/i]